<svg xmlns="http://www.w3.org/2000/svg" width="18.001" height="18" viewBox="0 0 18.001 18">
  <path id="blogging" d="M8.965,7.1a.7.7,0,1,1-.7.7A.7.7,0,0,1,8.965,7.1Zm2.461.7a.7.7,0,1,0,.7-.7A.7.7,0,0,0,11.426,7.805Zm-6.328,0a.7.7,0,1,0,.7-.7A.7.7,0,0,0,5.1,7.805ZM17.383,14.4A2.109,2.109,0,0,1,14.4,17.383l-3.86-3.851a.7.7,0,0,1-.176-.293l-.841-2.768a.7.7,0,0,1,.861-.882l2.838.786a.7.7,0,0,1,.309.18Zm-5.725-1.739,2.6,2.6.995-.995-2.589-2.585-1.428-.4Zm4.731,2.734-.136-.136-.994.994.135.135a.7.7,0,1,0,.995-.994Zm-7-.823c-.13.006-.261.009-.391.009a8.509,8.509,0,0,1-3.235-.626.7.7,0,0,0-.539,0l-3.2,1.352L3.1,12.753a.7.7,0,0,0-.123-.741,5.962,5.962,0,0,1-1.574-4c0-3.642,3.407-6.6,7.594-6.6s7.594,2.963,7.594,6.6a5.788,5.788,0,0,1-.63,2.577.7.7,0,0,0,1.261.623A7.182,7.182,0,0,0,18,8.011C18,3.594,13.963,0,9,0S0,3.594,0,8.011A7.29,7.29,0,0,0,1.64,12.6L.055,16.356a.7.7,0,0,0,.921.921L5.51,15.364A9.934,9.934,0,0,0,9,15.986c.15,0,.3,0,.453-.01a.7.7,0,0,0-.062-1.4Zm0,0" fill="#34b67a"/>
</svg>
